<svg xmlns="http://www.w3.org/2000/svg" viewBox="0 0 512 512" width="512" height="512">
	<style>
		tspan { white-space:pre }
		.shp0 { fill: #717b89 } 
		.shp1 { fill: #00eccf } 
		.shp2 { fill: #00cab1 } 
	</style>
	<path id="Layer" fill-rule="evenodd" class="shp0" d="M256 480C131.93 480 31 379.07 31 255C31 130.93 131.93 30 256 30C380.07 30 481 130.93 481 255C481 379.07 380.07 480 256 480ZM256 60C148.48 60 61 147.48 61 255C61 362.52 148.48 450 256 450C363.52 450 451 362.52 451 255C451 147.48 363.52 60 256 60Z" />
	<path id="Layer" class="shp0" d="M256 30L256 60C363.52 60 451 147.48 451 255C451 362.52 363.52 450 256 450L256 480C380.07 480 481 379.07 481 255C481 130.93 380.07 30 256 30Z" />
	<path id="Layer" class="shp1" d="M286 90L226 90C217.71 90 211 83.29 211 75L211 15C211 6.71 217.71 0 226 0L286 0C294.29 0 301 6.71 301 15L301 75C301 83.29 294.29 90 286 90Z" />
	<path id="Layer" class="shp1" d="M286 512L226 512C217.71 512 211 505.29 211 497L211 437C211 428.71 217.71 422 226 422L286 422C294.29 422 301 428.71 301 437L301 497C301 505.29 294.29 512 286 512Z" />
	<path id="Layer" class="shp2" d="M497 301L437 301C428.71 301 422 294.29 422 286L422 226C422 217.71 428.71 211 437 211L497 211C505.29 211 512 217.71 512 226L512 286C512 294.29 505.29 301 497 301Z" />
	<path id="Layer" class="shp1" d="M75 301L15 301C6.71 301 0 294.29 0 286L0 226C0 217.71 6.71 211 15 211L75 211C83.29 211 90 217.71 90 226L90 286C90 294.29 83.29 301 75 301Z" />
	<g id="Layer">
		<path id="Layer" class="shp2" d="M286 0L256 0L256 90L286 90C294.29 90 301 83.29 301 75L301 15C301 6.71 294.29 0 286 0Z" />
		<path id="Layer" class="shp2" d="M286 422L256 422L256 512L286 512C294.29 512 301 505.29 301 497L301 437C301 428.71 294.29 422 286 422Z" />
	</g>
</svg>