<svg xmlns="http://www.w3.org/2000/svg" viewBox="0 0 512 512" width="512" height="512">
	<style>
		tspan { white-space:pre }
		.shp0 { fill: #717b89 } 
		.shp1 { fill: #00eccf } 
		.shp2 { fill: #00cab1 } 
	</style>
	<path id="Layer" class="shp0" d="M421 482L81.5 482C73.21 482 66.5 475.29 66.5 467C66.5 458.71 73.21 452 81.5 452L421 452C429.29 452 436 458.71 436 467C436 475.29 429.29 482 421 482Z" />
	<path id="Layer" class="shp0" d="M421 452L251.25 452L251.25 482L421 482C429.29 482 436 475.29 436 467C436 458.71 429.29 452 421 452Z" />
	<path id="Layer" class="shp0" d="M421 60L81.5 60C73.21 60 66.5 53.29 66.5 45C66.5 36.71 73.21 30 81.5 30L421 30C429.29 30 436 36.71 436 45C436 53.29 429.29 60 421 60Z" />
	<path id="Layer" class="shp0" d="M467 436C458.71 436 452 429.29 452 421L452 81.5C452 73.21 458.71 66.5 467 66.5C475.29 66.5 482 73.21 482 81.5L482 421C482 429.29 475.29 436 467 436Z" />
	<path id="Layer" class="shp0" d="M45 436C36.71 436 30 429.29 30 421L30 81.5C30 73.21 36.71 66.5 45 66.5C53.29 66.5 60 73.21 60 81.5L60 421C60 429.29 53.29 436 45 436Z" />
	<path id="Layer" class="shp1" d="M75 90L15 90C6.71 90 0 83.29 0 75L0 15C0 6.71 6.71 0 15 0L75 0C83.29 0 90 6.71 90 15L90 75C90 83.29 83.29 90 75 90Z" />
	<path id="Layer" class="shp1" d="M75 512L15 512C6.71 512 0 505.29 0 497L0 437C0 428.71 6.71 422 15 422L75 422C83.29 422 90 428.71 90 437L90 497C90 505.29 83.29 512 75 512Z" />
	<path id="Layer" class="shp2" d="M497 512L437 512C428.71 512 422 505.29 422 497L422 437C422 428.71 428.71 422 437 422L497 422C505.29 422 512 428.71 512 437L512 497C512 505.29 505.29 512 497 512Z" />
	<path id="Layer" class="shp0" d="M421 30L251.25 30L251.25 60L421 60C429.29 60 436 53.29 436 45C436 36.71 429.29 30 421 30Z" />
	<path id="Layer" class="shp2" d="M497 90L437 90C428.71 90 422 83.29 422 75L422 15C422 6.71 428.71 0 437 0L497 0C505.29 0 512 6.71 512 15L512 75C512 83.29 505.29 90 497 90Z" />
</svg>