<svg xmlns="http://www.w3.org/2000/svg" viewBox="0 0 512 512" width="512" height="512">
	<style>
		tspan { white-space:pre }
		.shp0 { fill: #2d7ecd } 
		.shp1 { fill: #0f385f } 
	</style>
	<g id="Layer">
		<path id="Layer" fill-rule="evenodd" class="shp0" d="M10.07 342.22L93.16 154.6C98.95 141.66 109.5 133.83 123.81 133.83L126.87 133.83C141.17 133.83 151.39 141.66 157.17 154.6L240.26 342.22C241.97 345.97 242.99 349.37 242.99 352.78C242.99 366.74 232.09 377.98 218.13 377.98C205.87 377.98 197.7 370.83 192.93 359.93L176.93 322.47L72.05 322.47L55.36 361.63C50.94 371.85 42.08 377.97 31.19 377.97C17.56 377.97 7.01 367.08 7.01 353.46C7.01 349.71 8.37 345.97 10.07 342.22ZM157.52 276.16L124.48 197.5L91.46 276.16L157.52 276.16Z" />
		<path id="Layer" fill-rule="evenodd" class="shp0" d="M268.83 325.49L268.83 324.81C268.83 284.97 299.13 266.59 342.38 266.59C360.77 266.59 374.05 269.65 386.99 274.08L386.99 271.01C386.99 249.56 373.71 237.64 347.83 237.64C333.53 237.64 321.95 239.68 312.08 242.75C309.01 243.77 306.97 244.11 304.58 244.11C292.67 244.11 283.13 234.92 283.13 223C283.13 213.8 288.92 205.97 297.09 202.91C313.44 196.78 331.14 193.38 355.32 193.38C383.58 193.38 404.01 200.87 416.95 213.81C430.58 227.43 436.7 247.52 436.7 272.03L436.7 355.12C436.7 369.08 425.47 379.98 411.5 379.98C396.52 379.98 386.65 369.42 386.65 358.53L386.65 358.19C374.05 372.15 356.68 381.34 331.48 381.34C297.09 381.34 268.83 361.59 268.83 325.49ZM387.67 313.57L387.67 304.38C378.82 300.3 367.24 297.57 354.64 297.57C332.5 297.57 318.88 306.42 318.88 322.77L318.88 323.45C318.88 337.41 330.46 345.58 347.15 345.58C371.32 345.58 387.67 332.3 387.67 313.57Z" />
	</g>
	<path id="Layer" fill-rule="evenodd" class="shp1" d="M248.58 340.98C250.9 346.08 252 350.48 252 354.78C252 373.4 237.56 387.98 219.13 387.98C204.59 387.98 193.04 379.87 186.59 365.14L172.64 332.48L78.34 332.48L63.73 366.77C57.97 380.07 46.18 387.98 32.19 387.98C14.14 387.98 0 373.7 0 355.46C0 349.98 1.9 345.05 3.77 340.94L86.83 153.36C94.1 137.11 107.94 127.82 124.8 127.82L127.87 127.82C144.77 127.82 158.13 136.88 165.48 153.33L248.58 340.98ZM235.98 354.78C235.98 352.85 235.34 350.55 233.97 347.53L150.85 159.84C146.1 149.23 138.37 143.83 127.87 143.83L124.81 143.83C111.45 143.83 104.74 152.56 101.47 159.87L18.39 347.46C18.38 347.49 18.37 347.51 18.36 347.53C17.27 349.94 16.02 353.01 16.02 355.46C16.02 364.72 23.12 371.97 32.19 371.97C39.82 371.97 45.79 367.88 49.01 360.45L65.68 321.33C66.94 318.38 69.84 316.46 73.05 316.46L177.93 316.46C181.13 316.46 184.03 318.38 185.29 321.33L201.29 358.78C205.17 367.63 211.01 371.97 219.13 371.97C228.58 371.97 235.98 364.42 235.98 354.78ZM444.71 272.03L444.71 355.11C444.71 373.54 430.13 387.98 411.51 387.98C397.9 387.98 387.92 381.43 382.72 372.8C368.74 383.79 351.57 389.34 331.49 389.34C312.26 389.34 294.73 383.57 282.14 373.1C268.19 361.51 260.82 345.04 260.82 325.49L260.82 324.81C260.82 303.26 269.06 285.8 284.63 274.31C298.79 263.87 318.22 258.57 342.38 258.57C357.09 258.57 368.6 260.5 378.1 262.99C374.35 247.63 359.43 245.65 347.83 245.65C335.69 245.65 324.79 247.19 314.53 250.37C310.79 251.61 307.91 252.11 304.58 252.11C288.06 252.11 275.13 239.32 275.13 223C275.13 210.79 282.82 199.71 294.28 195.41C312.81 188.46 331.63 185.36 355.32 185.36C384.86 185.36 407.51 193.03 422.62 208.14C437.28 222.8 444.71 244.3 444.71 272.03L444.71 272.03ZM428.69 355.12L428.7 272.03C428.7 248.7 422.84 231.02 411.29 219.47C399.29 207.47 380.46 201.38 355.32 201.38C333.64 201.38 316.55 204.17 299.9 210.41C294.66 212.37 291.14 217.43 291.14 223C291.14 230.35 297.04 236.1 304.58 236.1C305.95 236.1 307.15 235.95 309.54 235.15C309.59 235.14 309.65 235.12 309.7 235.1C321.55 231.42 334.02 229.63 347.83 229.63C377.8 229.63 395 244.72 395 271.01L395 274.08C395 276.67 393.75 279.09 391.65 280.59C389.54 282.1 386.84 282.49 384.4 281.66C373.68 277.99 361.17 274.6 342.38 274.6C317.9 274.6 276.84 281.12 276.84 324.82L276.84 325.5C276.84 347.56 291.15 373.33 331.49 373.33C352.15 373.33 368.25 366.62 380.7 352.82C382.92 350.36 386.43 349.52 389.52 350.71C392.62 351.9 394.66 354.87 394.66 358.18L394.66 358.52C394.66 366.83 403.4 371.97 411.5 371.97C421.14 371.97 428.69 364.57 428.69 355.12ZM484.51 116.32L484.51 395.68L512 395.68L512 411.7L441.01 411.7L441.01 395.68L468.5 395.68L468.5 116.32L441.01 116.32L441.01 100.3L512 100.3L512 116.32L484.51 116.32ZM395.68 304.38L395.68 313.57C395.68 337.14 375.72 353.59 347.15 353.59C325.45 353.59 310.88 341.48 310.88 323.45L310.88 322.77C310.88 312.09 315.39 303.33 323.92 297.45C331.5 292.21 341.84 289.56 354.64 289.56C367.56 289.56 380.48 292.24 391.02 297.11C393.86 298.42 395.68 301.26 395.68 304.38ZM379.66 313.57L379.66 309.75C372.12 307.04 363.42 305.58 354.64 305.58C344.27 305.58 326.89 307.81 326.89 322.77L326.89 323.45C326.89 326.76 328.35 337.57 347.15 337.57C366.59 337.57 379.66 327.93 379.66 313.57ZM165.9 275.06C166.94 277.53 166.67 280.36 165.18 282.59C163.7 284.83 161.2 286.17 158.51 286.17L92.45 286.17C89.77 286.17 87.27 284.83 85.78 282.6C84.3 280.36 84.03 277.53 85.07 275.06L118.1 196.4C119.35 193.43 122.26 191.49 125.48 191.49C128.71 191.49 131.62 193.43 132.87 196.4L165.9 275.06ZM146.47 270.15L125.49 220.19L104.5 270.15L146.47 270.15Z" />
	<g id="Layer">
	</g>
	<g id="Layer">
	</g>
	<g id="Layer">
	</g>
	<g id="Layer">
	</g>
	<g id="Layer">
	</g>
	<g id="Layer">
	</g>
	<g id="Layer">
	</g>
	<g id="Layer">
	</g>
	<g id="Layer">
	</g>
	<g id="Layer">
	</g>
	<g id="Layer">
	</g>
	<g id="Layer">
	</g>
	<g id="Layer">
	</g>
	<g id="Layer">
	</g>
	<g id="Layer">
	</g>
</svg>